<svg width="12" height="13" viewBox="0 0 12 13" fill="none" xmlns="http://www.w3.org/2000/svg">
<g clip-path="url(#clip0_4_58)">
<path d="M11.918 4.89701C11.8157 4.57146 11.6114 4.28746 11.3352 4.08702C11.0591 3.88658 10.7257 3.78034 10.3845 3.78401H8.2L7.5365 1.71601C7.43216 1.39049 7.22713 1.10651 6.95098 0.90504C6.67483 0.703566 6.34183 0.595001 6 0.595001C5.65816 0.595001 5.32516 0.703566 5.04901 0.90504C4.77286 1.10651 4.56784 1.39049 4.4635 1.71601L3.8 3.78401H1.6155C1.27537 3.78449 0.944093 3.89245 0.668987 4.09246C0.393881 4.29247 0.189018 4.5743 0.083658 4.8977C-0.0217017 5.2211 -0.022168 5.56952 0.0823256 5.8932C0.186819 6.21688 0.390928 6.49926 0.665497 6.70001L2.4435 8.00001L1.7675 10.0935C1.65825 10.4182 1.65687 10.7695 1.76355 11.0951C1.87023 11.4206 2.07927 11.7029 2.3595 11.9C2.63492 12.1034 2.96869 12.2124 3.31107 12.2106C3.65345 12.2089 3.98612 12.0966 4.2595 11.8905L6 10.6095L7.741 11.889C8.01592 12.0912 8.34789 12.2011 8.68918 12.2027C9.03047 12.2044 9.3635 12.0978 9.64038 11.8983C9.91726 11.6987 10.1237 11.4165 10.2301 11.0922C10.3365 10.768 10.3374 10.4183 10.2325 10.0935L9.5565 8.00001L11.3365 6.70001C11.6142 6.50178 11.8207 6.21941 11.9254 5.89468C12.0302 5.56995 12.0276 5.22014 11.918 4.89701ZM10.7465 5.89251L8.6745 7.40701C8.58939 7.46909 8.52607 7.55647 8.49357 7.65668C8.46106 7.75688 8.46104 7.86479 8.4935 7.96501L9.281 10.4C9.32085 10.5235 9.32051 10.6565 9.28003 10.7798C9.23955 10.9031 9.16101 11.0103 9.05571 11.0862C8.95041 11.162 8.82377 11.2026 8.694 11.2019C8.56423 11.2012 8.43802 11.1594 8.3335 11.0825L6.296 9.58251C6.21018 9.51947 6.10648 9.48548 6 9.48548C5.89352 9.48548 5.78981 9.51947 5.704 9.58251L3.6665 11.0825C3.56204 11.1605 3.43547 11.2031 3.30513 11.2043C3.17479 11.2055 3.04747 11.1651 2.94161 11.0891C2.83576 11.013 2.75687 10.9052 2.7164 10.7814C2.67592 10.6575 2.67595 10.5239 2.7165 10.4L3.5065 7.96501C3.53896 7.86479 3.53893 7.75688 3.50643 7.65668C3.47392 7.55647 3.4106 7.46909 3.3255 7.40701L1.2535 5.89251C1.14915 5.81611 1.07161 5.70868 1.03197 5.58558C0.992321 5.46248 0.992592 5.33 1.03274 5.20706C1.07289 5.08412 1.15086 4.97701 1.25552 4.90103C1.36018 4.82506 1.48617 4.7841 1.6155 4.78401H4.1655C4.27136 4.784 4.37448 4.7504 4.46002 4.68805C4.54556 4.62569 4.6091 4.53779 4.6415 4.43701L5.4165 2.02151C5.45628 1.8979 5.53425 1.7901 5.6392 1.71363C5.74414 1.63716 5.87065 1.59596 6.0005 1.59596C6.13035 1.59596 6.25685 1.63716 6.3618 1.71363C6.46674 1.7901 6.54472 1.8979 6.5845 2.02151L7.3595 4.43701C7.39189 4.53779 7.45543 4.62569 7.54097 4.68805C7.62651 4.7504 7.72964 4.784 7.8355 4.78401H10.3855C10.5148 4.7841 10.6408 4.82506 10.7455 4.90103C10.8501 4.97701 10.9281 5.08412 10.9683 5.20706C11.0084 5.33 11.0087 5.46248 10.969 5.58558C10.9294 5.70868 10.8518 5.81611 10.7475 5.89251H10.7465Z" fill="#FF7A00"/>
</g>
<defs>
<clipPath id="clip0_4_58">
<rect width="12" height="12" fill="white" transform="translate(0 0.5)"/>
</clipPath>
</defs>
</svg>
