<svg width="12" height="13" viewBox="0 0 12 13" fill="none" xmlns="http://www.w3.org/2000/svg">
<g clip-path="url(#clip0_4_56)">
<path d="M0.663501 6.70001L2.4435 8.00001L1.7675 10.0935C1.65826 10.4182 1.65687 10.7695 1.76356 11.0951C1.87024 11.4206 2.07927 11.7029 2.3595 11.9C2.63493 12.1034 2.9687 12.2124 3.31108 12.2106C3.65346 12.2089 3.98612 12.0966 4.2595 11.8905L6 10.6095L7.741 11.889C8.01593 12.0912 8.3479 12.2011 8.68919 12.2027C9.03047 12.2044 9.3635 12.0978 9.64038 11.8983C9.91727 11.6987 10.1237 11.4165 10.2301 11.0922C10.3365 10.768 10.3374 10.4183 10.2325 10.0935L9.5565 8.00001L11.3365 6.70001C11.6111 6.49926 11.8152 6.21688 11.9197 5.8932C12.0242 5.56952 12.0237 5.2211 11.9183 4.8977C11.813 4.5743 11.6081 4.29247 11.333 4.09246C11.0579 3.89245 10.7266 3.78449 10.3865 3.78401H8.2L7.5365 1.71601C7.43216 1.39049 7.22713 1.10651 6.95099 0.90504C6.67484 0.703566 6.34183 0.595001 6 0.595001C5.65817 0.595001 5.32517 0.703566 5.04902 0.90504C4.77287 1.10651 4.56784 1.39049 4.4635 1.71601L3.8 3.78401H1.6155C1.27537 3.78449 0.944097 3.89245 0.668991 4.09246C0.393885 4.29247 0.189021 4.5743 0.0836618 4.8977C-0.0216979 5.2211 -0.0221642 5.56952 0.0823294 5.8932C0.186823 6.21688 0.390931 6.49926 0.665501 6.70001H0.663501Z" fill="#FF7A00"/>
</g>
<defs>
<clipPath id="clip0_4_56">
<rect width="12" height="12" fill="white" transform="translate(0 0.5)"/>
</clipPath>
</defs>
</svg>
