<svg width="12" height="13" viewBox="0 0 12 13" fill="none" xmlns="http://www.w3.org/2000/svg">
<g clip-path="url(#clip0_4_60)">
<path d="M11.918 4.7995C11.749 4.287 11.246 3.6885 10.3845 3.6885H8.20047L7.53697 1.6195C7.27147 0.793 6.54347 0.5 6.00047 0.5C5.45747 0.5 4.72947 0.7935 4.46447 1.62L3.80097 3.6885H1.61547C0.748971 3.6885 0.247971 4.288 0.0834711 4.798C-0.0865289 5.312 -0.0365288 6.0935 0.663471 6.604L2.44397 7.9055L1.76797 9.9975C1.50047 10.8235 1.91897 11.4865 2.35797 11.8015C2.60147 11.9775 2.94297 12.114 3.31747 12.114C3.62097 12.114 3.94647 12.0245 4.25847 11.7935L5.99997 10.5135L7.74047 11.793C8.31047 12.2115 9.09747 12.198 9.63647 11.805C10.079 11.489 10.5 10.826 10.2315 9.9975L9.55547 7.9055L11.3355 6.6045C12.033 6.096 12.085 5.3155 11.9175 4.7995H11.918ZM10.7465 5.797L8.67397 7.3115C8.49947 7.4385 8.42697 7.6635 8.49347 7.869L9.28047 10.3055C9.41197 10.7115 9.11597 10.948 9.05147 10.994C8.84847 11.142 8.56147 11.155 8.33247 10.9875L6.29547 9.49C6.20747 9.4255 6.10347 9.393 5.99947 9.393V1.5C6.13447 1.5 6.46047 1.5415 6.58397 1.9255L7.35897 4.3415C7.42547 4.5485 7.61797 4.6885 7.83497 4.6885H10.384C10.785 4.6885 10.9255 4.985 10.967 5.1105C11.0085 5.238 11.07 5.5605 10.7465 5.797Z" fill="#FF7A00"/>
</g>
<defs>
<clipPath id="clip0_4_60">
<rect width="12" height="12" fill="white" transform="translate(0 0.5)"/>
</clipPath>
</defs>
</svg>
