<svg width="25" height="23" viewBox="0 0 25 23" fill="none" xmlns="http://www.w3.org/2000/svg">
<path d="M18.2269 0C17.0544 0.0179913 15.9074 0.340879 14.9019 0.936056C13.8964 1.53123 13.0679 2.37762 12.5 3.38975C11.9321 2.37762 11.1036 1.53123 10.0981 0.936056C9.09256 0.340879 7.94564 0.0179913 6.77314 0C4.90404 0.0801119 3.14305 0.886733 1.87489 2.24364C0.606735 3.60055 -0.0655042 5.39744 0.00504078 7.24175C0.00504078 14.201 11.4129 22.2388 11.8982 22.5799L12.5 23L13.1018 22.5799C13.5871 22.2409 24.995 14.201 24.995 7.24175C25.0655 5.39744 24.3933 3.60055 23.1251 2.24364C21.8569 0.886733 20.096 0.0801119 18.2269 0ZM12.5 20.471C9.11282 17.9749 2.08753 11.8426 2.08753 7.24175C2.01636 5.94205 2.46901 4.66731 3.34678 3.69555C4.22455 2.72379 5.45621 2.13385 6.77314 2.0544C8.09008 2.13385 9.32174 2.72379 10.1995 3.69555C11.0773 4.66731 11.5299 5.94205 11.4588 7.24175H13.5412C13.4701 5.94205 13.9227 4.66731 14.8005 3.69555C15.6783 2.72379 16.9099 2.13385 18.2269 2.0544C19.5438 2.13385 20.7755 2.72379 21.6532 3.69555C22.531 4.66731 22.9836 5.94205 22.9125 7.24175C22.9125 11.8446 15.8872 17.9749 12.5 20.471Z" fill="#D7D7D7"/>
</svg>
