<svg width="25" height="23" viewBox="0 0 25 23" fill="none" xmlns="http://www.w3.org/2000/svg">
<g clip-path="url(#clip0_4_917)">
<path d="M18.2269 0C17.0544 0.0179913 15.9074 0.340879 14.9019 0.936056C13.8964 1.53123 13.0679 2.37762 12.5 3.38975C11.9321 2.37762 11.1036 1.53123 10.0981 0.936056C9.09256 0.340879 7.94564 0.0179913 6.77314 0C4.90404 0.0801119 3.14305 0.886733 1.87489 2.24364C0.606735 3.60055 -0.0655042 5.39744 0.00504078 7.24175C0.00504078 14.201 11.4129 22.2388 11.8982 22.5799L12.5 23L13.1018 22.5799C13.5871 22.2409 24.995 14.201 24.995 7.24175C25.0655 5.39744 24.3933 3.60055 23.1251 2.24364C21.8569 0.886733 20.096 0.0801119 18.2269 0Z" fill="#D7D7D7"/>
</g>
<defs>
<clipPath id="clip0_4_917">
<rect width="25" height="23" fill="white"/>
</clipPath>
</defs>
</svg>
