<svg width="19" height="23" viewBox="0 0 19 23" fill="none" xmlns="http://www.w3.org/2000/svg">
<path d="M16.8137 5.61146C16.4704 5.75001 16.1041 5.83084 15.715 5.83084C14.124 5.83084 12.8192 4.52612 12.8192 2.90965C12.8192 2.28615 13.0138 1.72039 13.3342 1.24699C13.8607 0.496488 14.7306 0 15.715 0C17.3174 0 18.6107 1.30472 18.6107 2.90965C18.6107 4.13354 17.8668 5.1727 16.8137 5.61146Z" fill="#AEAEAE"/>
<path fill-rule="evenodd" clip-rule="evenodd" d="M17.1572 7.9207V12.9663L19 14.8599V18.7972H13.9524C13.7922 21.1411 11.8693 23 9.50003 23C7.13076 23 5.21926 21.1411 5.04758 18.7972H0V14.8599L1.84277 12.9663V7.9207C1.84277 3.66015 5.27649 0.196286 9.50003 0.196286C10.2898 0.196286 11.0452 0.311748 11.7548 0.542672C11.3313 1.23545 11.1024 2.04368 11.1024 2.90965C11.1024 5.48445 13.1741 7.56277 15.7151 7.56277C16.2072 7.56277 16.688 7.48195 17.1343 7.34339C17.1458 7.52813 17.1572 7.72442 17.1572 7.9207ZM6.76444 18.7972C6.92468 20.1827 8.08076 21.2681 9.50003 21.2681C10.9193 21.2681 12.0753 20.1827 12.2356 18.7972H6.76444Z" fill="#AEAEAE"/>
</svg>
