<svg width="19" height="22" viewBox="0 0 19 22" fill="none" xmlns="http://www.w3.org/2000/svg">
<path fill-rule="evenodd" clip-rule="evenodd" d="M14.32 0C12.4209 0 10.8816 1.50377 10.8816 3.35876C10.8816 5.21376 12.4209 6.71754 14.32 6.71754C16.219 6.71754 17.7584 5.21376 17.7584 3.35876C17.7584 1.50377 16.219 0 14.32 0ZM12.5482 3.35876C12.5482 2.40288 13.3413 1.62798 14.32 1.62798C15.2985 1.62798 16.0918 2.40288 16.0918 3.35876C16.0918 4.31466 15.2985 5.08956 14.32 5.08956C13.3413 5.08956 12.5482 4.31466 12.5482 3.35876Z" fill="#AEAEAE"/>
<path fill-rule="evenodd" clip-rule="evenodd" d="M1.79174 7.82316C1.79174 3.66462 5.24285 0.293449 9.49999 0.293449V1.92143C6.16329 1.92143 3.45833 4.56373 3.45833 7.82316V13.1285L1.66659 14.9025V16.6896H17.3334V14.9025L15.5417 13.1285V7.82316H17.2083V12.4606L19 14.2347V18.3176H13.8143C13.5299 20.3965 11.7073 22 9.50132 22C7.29522 22 5.47261 20.3965 5.18818 18.3176H0V14.2347L1.79174 12.4606V7.82316ZM6.87944 18.3176H12.1231C11.8572 19.4929 10.7843 20.372 9.50132 20.372C8.21823 20.372 7.14531 19.4929 6.87944 18.3176Z" fill="#AEAEAE"/>
</svg>
