<svg width="23" height="23" viewBox="0 0 23 23" fill="none" xmlns="http://www.w3.org/2000/svg">
<path fill-rule="evenodd" clip-rule="evenodd" d="M7.48501 3.04L7.27128 4.31272C6.33393 4.36361 5.39841 4.43527 4.46504 4.53001L2.42504 4.73001C2.01504 4.77001 1.71504 5.13001 1.75504 5.55001C1.79504 5.97001 2.16504 6.27001 2.58504 6.23001L4.62504 6.03001C9.85504 5.50001 15.135 5.70001 20.425 6.23001H20.505C20.885 6.23001 21.215 5.94001 21.245 5.55001C21.285 5.14001 20.985 4.77001 20.575 4.73001C18.9637 4.57186 17.3533 4.44221 15.7454 4.35247L15.525 3.05L15.5241 3.04413C15.3741 2.12414 15.15 0.75 12.815 0.75H10.195C7.86668 0.75 7.64533 2.0781 7.48536 3.03794L7.48501 3.04ZM14.055 3.3L14.2208 4.27967C12.4112 4.20829 10.6053 4.19217 8.80559 4.24764L8.97501 3.29L8.97653 3.281C9.12516 2.39906 9.1486 2.26 10.205 2.26H12.825C13.885 2.26 13.915 2.43 14.055 3.3Z" fill="#D7D7D7"/>
<path d="M8.29503 22.25H14.715C18.205 22.25 18.345 20.32 18.455 18.76L19.105 8.69C19.135 8.27 18.815 7.92 18.405 7.89C17.995 7.87 17.635 8.18 17.605 8.59L16.955 18.66C16.855 20.18 16.815 20.75 14.715 20.75H8.29503C6.20627 20.75 6.16507 20.1807 6.05522 18.6627L6.05503 18.66L5.40503 8.59C5.37503 8.18 5.02503 7.87 4.60503 7.89C4.19503 7.92 3.87503 8.28 3.90503 8.69L4.55503 18.76C4.66503 20.32 4.80503 22.25 8.29503 22.25Z" fill="#D7D7D7"/>
<path d="M13.1651 16.75H9.83508C9.42508 16.75 9.08508 16.41 9.08508 16C9.08508 15.59 9.42508 15.25 9.83508 15.25H13.1651C13.5751 15.25 13.9151 15.59 13.9151 16C13.9151 16.41 13.5751 16.75 13.1651 16.75Z" fill="#D7D7D7"/>
<path d="M9.005 12.75H14.005C14.415 12.75 14.755 12.41 14.755 12C14.755 11.59 14.415 11.25 14.005 11.25H9.005C8.59501 11.25 8.255 11.59 8.255 12C8.255 12.41 8.59501 12.75 9.005 12.75Z" fill="#D7D7D7"/>
</svg>
